<?xml version="1.0" standalone="no"?>
<!DOCTYPE svg PUBLIC "-//W3C//DTD SVG 20010904//EN"
 "http://www.w3.org/TR/2001/REC-SVG-20010904/DTD/svg10.dtd">
<svg version="1.0" xmlns="http://www.w3.org/2000/svg"
 width="471.000000pt" height="450.000000pt" viewBox="0 0 471.000000 450.000000"
 preserveAspectRatio="xMidYMid meet">

<g transform="translate(0.000000,450.000000) scale(0.100000,-0.100000)"
fill="#000000" stroke="none">
<path d="M0 2250 l0 -2250 2355 0 2355 0 0 2250 0 2250 -2355 0 -2355 0 0
-2250z m2515 1100 c3 -5 -3 -10 -14 -10 -12 0 -21 5 -21 10 0 6 6 10 14 10 8
0 18 -4 21 -10z m45 -40 c0 -5 -5 -10 -11 -10 -5 0 -7 5 -4 10 3 6 8 10 11 10
2 0 4 -4 4 -10z m110 -6 c0 -2 -7 -4 -15 -4 -8 0 -15 4 -15 10 0 5 7 7 15 4 8
-4 15 -8 15 -10z m-248 -64 c12 0 35 -4 52 -9 17 -6 54 -16 81 -25 28 -8 66
-21 86 -30 20 -8 39 -12 43 -9 3 4 6 0 6 -8 0 -8 12 -22 28 -31 45 -28 148
-133 175 -180 14 -23 30 -61 37 -83 7 -22 16 -44 20 -50 10 -13 19 -68 29
-180 7 -68 6 -96 -4 -115 -7 -14 -15 -43 -17 -65 -9 -81 -63 -171 -159 -266
-50 -49 -95 -89 -100 -89 -5 0 -9 -7 -9 -15 0 -8 -9 -15 -20 -15 -12 0 -39 -9
-61 -20 -30 -16 -194 -50 -242 -50 -5 0 -7 27 -6 60 1 33 -1 63 -4 67 -4 3
-24 8 -45 10 -75 7 -169 43 -230 88 -159 117 -235 301 -198 480 22 110 58 179
135 256 78 77 145 113 261 137 l84 17 -3 63 c-1 39 2 62 8 62 6 0 11 8 11 18
1 16 1 16 11 0 5 -10 20 -18 31 -18z m298 -56 c0 -8 -5 -12 -10 -9 -6 4 -8 11
-5 16 9 14 15 11 15 -7z m135 -6 c6 -4 21 -17 35 -27 14 -11 22 -22 19 -25 -3
-3 -26 12 -50 35 -37 34 -39 45 -4 17z m80 -78 c3 -5 1 -10 -4 -10 -6 0 -11 5
-11 10 0 6 2 10 4 10 3 0 8 -4 11 -10z m2 -126 c-3 -3 -12 -4 -19 -1 -8 3 -5
6 6 6 11 1 17 -2 13 -5z m116 -64 c3 -11 2 -22 -2 -24 -4 -3 -8 6 -9 20 -2 29
4 31 11 4z m-96 -32 c-3 -8 -6 -5 -6 6 -1 11 2 17 5 13 3 -3 4 -12 1 -19z m90
-40 c-3 -7 -5 -2 -5 12 0 14 2 19 5 13 2 -7 2 -19 0 -25z m30 -10 c-3 -8 -6
-5 -6 6 -1 11 2 17 5 13 3 -3 4 -12 1 -19z m23 -69 c0 -10 -4 -19 -10 -19 -5
0 -10 12 -10 26 0 14 4 23 10 19 6 -3 10 -15 10 -26z m0 -273 c0 -8 -4 -18
-10 -21 -5 -3 -10 3 -10 14 0 12 5 21 10 21 6 0 10 -6 10 -14z m-20 -84 c0 -8
-1 -13 -3 -11 -1 2 -9 12 -16 22 -12 15 -12 17 3 11 9 -3 16 -13 16 -22z m-27
-72 c-3 -12 -8 -19 -11 -16 -5 6 5 36 12 36 2 0 2 -9 -1 -20z m-103 -60 c0 -5
-9 -10 -21 -10 -11 0 -17 5 -14 10 3 6 13 10 21 10 8 0 14 -4 14 -10z m23 -30
c-3 -12 -8 -19 -11 -16 -5 6 5 36 12 36 2 0 2 -9 -1 -20z m-93 -20 c0 -5 -4
-10 -10 -10 -5 0 -10 5 -10 10 0 6 5 10 10 10 6 0 10 -4 10 -10z m20 -64 c0
-3 -4 -8 -10 -11 -5 -3 -10 -1 -10 4 0 6 5 11 10 11 6 0 10 -2 10 -4z m-125
-46 c3 -5 -1 -10 -9 -10 -9 0 -16 5 -16 10 0 6 4 10 9 10 6 0 13 -4 16 -10z
m125 -14 c0 -3 -4 -8 -10 -11 -5 -3 -10 -1 -10 4 0 6 5 11 10 11 6 0 10 -2 10
-4z m-40 -26 c0 -5 -10 -15 -22 -21 -23 -12 -23 -12 -4 10 21 23 26 26 26 11z
m-140 -20 c0 -5 -2 -10 -4 -10 -3 0 -8 5 -11 10 -3 6 -1 10 4 10 6 0 11 -4 11
-10z m40 -34 c0 -2 -9 -6 -20 -9 -11 -3 -18 -1 -14 4 5 9 34 13 34 5z m-393
-108 c-3 -7 -5 -2 -5 12 0 14 2 19 5 13 2 -7 2 -19 0 -25z m220 26 c-3 -3 -12
-4 -19 -1 -8 3 -5 6 6 6 11 1 17 -2 13 -5z m83 2 c0 -2 -7 -6 -15 -10 -8 -3
-15 -1 -15 4 0 6 7 10 15 10 8 0 15 -2 15 -4z m-83 -32 c-3 -3 -12 -4 -19 -1
-8 3 -5 6 6 6 11 1 17 -2 13 -5z m-87 -14 c0 -5 -4 -10 -10 -10 -5 0 -10 5
-10 10 0 6 5 10 10 10 6 0 10 -4 10 -10z m-1719 -729 c24 -25 29 -37 29 -81 0
-50 -1 -51 -27 -48 -26 3 -28 7 -33 52 -5 45 -8 50 -34 57 -45 12 -80 -9 -84
-50 -3 -30 5 -42 86 -125 70 -71 92 -100 97 -129 15 -77 -32 -127 -119 -127
-85 0 -126 39 -126 120 0 38 2 40 30 40 29 0 30 -2 30 -44 0 -51 17 -70 65
-70 44 0 65 19 65 58 0 27 -15 46 -89 121 -98 98 -115 136 -91 196 17 40 54
58 118 59 46 0 58 -4 83 -29z m712 18 c46 -21 50 -41 55 -256 4 -180 3 -203
-11 -203 -9 0 -20 7 -25 17 -9 15 -12 14 -37 -5 -33 -26 -100 -29 -132 -7 -31
22 -46 78 -40 149 8 84 33 106 123 106 l64 0 0 69 c0 79 -12 95 -67 94 -42 -1
-45 -4 -52 -50 -5 -32 -11 -38 -34 -41 -25 -3 -27 -1 -27 35 0 43 21 80 54 93
30 12 101 12 129 -1z m726 -3 c44 -23 51 -52 51 -227 0 -175 -7 -205 -55 -227
-36 -16 -110 -15 -144 3 -46 24 -53 55 -49 245 l3 172 30 24 c35 28 118 33
164 10z m1170 -12 c31 -26 31 -26 31 -125 l0 -99 -90 0 -90 0 0 -79 c0 -90 10
-106 68 -104 41 1 62 23 62 65 0 23 4 28 25 28 23 0 25 -4 25 -41 0 -31 -6
-47 -29 -70 -25 -24 -37 -29 -81 -29 -65 0 -105 21 -119 61 -16 47 -14 337 3
368 19 35 54 50 113 51 41 0 58 -5 82 -26z m372 -3 l29 -29 0 -206 0 -206 -30
0 -29 0 0 202 c0 120 -4 205 -10 211 -20 20 -75 9 -98 -18 -22 -25 -23 -34
-23 -211 l0 -184 -25 0 -25 0 0 230 c0 189 2 230 14 230 7 0 16 -10 20 -22 4
-14 9 -19 13 -12 18 24 60 44 96 44 29 0 46 -7 68 -29z m348 3 c28 -23 31 -32
31 -80 0 -51 -1 -54 -25 -54 -22 0 -25 4 -25 38 0 52 -19 76 -63 76 -45 0 -67
-19 -67 -57 0 -24 17 -47 91 -123 86 -87 92 -96 97 -142 3 -41 0 -53 -20 -77
-20 -23 -35 -29 -81 -33 -100 -8 -147 31 -147 123 0 32 2 35 30 35 29 0 30 -2
30 -44 0 -53 18 -71 72 -70 46 2 58 15 58 62 0 30 -11 44 -85 114 -97 92 -116
130 -95 192 15 46 50 65 117 66 41 0 58 -5 82 -26z m-3117 -86 l3 -103 65 0
65 0 3 103 c3 101 3 102 27 102 l25 0 0 -230 0 -230 -25 0 c-24 0 -24 1 -27
103 l-3 102 -67 3 -68 3 0 -106 0 -105 -25 0 -25 0 0 230 0 230 25 0 c24 0 24
-1 27 -102z m867 87 c16 -8 34 -28 40 -46 14 -41 14 -297 0 -338 -16 -46 -54
-61 -149 -61 l-80 0 0 230 0 230 80 0 c52 0 91 -5 109 -15z m581 -184 c0 -169
2 -200 16 -212 18 -15 80 -17 94 -3 5 5 10 96 10 212 l1 202 30 0 29 0 0 -189
c0 -104 3 -197 6 -206 16 -42 106 -36 118 8 3 12 6 104 6 205 l0 182 25 0 25
0 0 -204 c0 -199 -1 -206 -23 -231 -30 -36 -105 -46 -153 -20 -30 16 -34 16
-55 1 -30 -21 -103 -20 -140 1 -15 9 -33 30 -39 46 -5 17 -10 115 -10 218 l0
189 30 0 30 0 0 -199z m542 -8 l3 -208 61 -3 c52 -2 63 -6 67 -22 5 -19 -1
-20 -89 -20 l-94 0 0 230 0 230 25 0 25 0 2 -207z"/>
<path d="M1390 933 c-8 -3 -18 -11 -22 -17 -11 -16 -9 -128 1 -145 16 -25 71
-17 98 13 21 24 23 37 21 90 l-3 61 -40 2 c-22 1 -47 -1 -55 -4z"/>
<path d="M2110 1137 l-25 -13 -3 -170 c-3 -191 0 -198 63 -198 62 0 65 8 65
194 0 122 -3 170 -13 178 -22 18 -61 23 -87 9z"/>
<path d="M3270 1137 c-23 -11 -25 -19 -28 -85 l-3 -72 67 0 66 0 -4 70 c-2 38
-8 74 -13 79 -18 16 -60 20 -85 8z"/>
<path d="M1730 950 l0 -193 45 5 c74 9 75 10 75 182 0 177 -3 185 -73 193
l-47 6 0 -193z"/>
</g>
</svg>
