<?xml version="1.0" encoding="UTF-8"?>
<svg version="1.1" xmlns="http://www.w3.org/2000/svg" width="471" height="450">
<path d="M0 0 C155.43 0 310.86 0 471 0 C471 148.5 471 297 471 450 C315.57 450 160.14 450 0 450 C0 301.5 0 153 0 0 Z " fill="#000000" transform="translate(0,0)"/>
<path d="M0 0 C22.24327791 -0.4157622 41.83756879 4.44005508 61 16 C62.3921875 16.79664063 62.3921875 16.79664063 63.8125 17.609375 C76.36212384 25.0963665 86.55168406 35.98070516 96 47 C96.78375 47.886875 97.5675 48.77375 98.375 49.6875 C100.12607767 52.17941822 100.65686319 53.99755291 101 57 C101.66 57 102.32 57 103 57 C118.38541743 85.23477704 124.85550636 118.86183376 116.046875 150.4140625 C115.10271465 153.30995731 114.07572046 156.1510216 113 159 C112.6803125 160.00675781 112.360625 161.01351562 112.03125 162.05078125 C111.07484572 164.78595257 109.9620273 167.07081323 108.5 169.5625 C107.16148116 171.85185692 105.99877128 174.00318464 105.04296875 176.48046875 C103.12441686 181.11517276 99.94834338 184.97181069 97 189 C96.49726563 189.7115625 95.99453125 190.423125 95.4765625 191.15625 C87.47825479 202.03719653 77.43927334 211.83086637 66 219 C65.06929687 219.63808594 64.13859375 220.27617187 63.1796875 220.93359375 C43.80135618 233.52712848 22.93252361 238.4286453 0 238 C0 230.08 0 222.16 0 214 C-2.97 214 -5.94 214 -9 214 C-15.55313509 213.67617798 -21.68739213 212.78658713 -28 211 C-28 210.34 -28 209.68 -28 209 C-28.83789062 208.89816406 -29.67578125 208.79632813 -30.5390625 208.69140625 C-34.40668124 207.91875555 -37.80051462 206.5456453 -41.375 204.9375 C-42.01566406 204.65583984 -42.65632813 204.37417969 -43.31640625 204.08398438 C-44.88029659 203.39540579 -46.44053941 202.69855289 -48 202 C-48 201.34 -48 200.68 -48 200 C-48.70125 199.731875 -49.4025 199.46375 -50.125 199.1875 C-58.52 195.72 -58.52 195.72 -61 192 C-61.99 191.67 -62.98 191.34 -64 191 C-65.578125 189.43359375 -65.578125 189.43359375 -67.25 187.4375 C-67.8584375 186.71820313 -68.466875 185.99890625 -69.09375 185.2578125 C-69.7228125 184.51273438 -70.351875 183.76765625 -71 183 C-72.24864304 181.60295267 -73.49859518 180.20707401 -74.75 178.8125 C-81 171.6636236 -81 171.6636236 -81 168 C-81.66 168 -82.32 168 -83 168 C-83.31453125 167.23816406 -83.6290625 166.47632813 -83.953125 165.69140625 C-84.59507812 164.14259766 -84.59507812 164.14259766 -85.25 162.5625 C-85.70375 161.46679688 -86.1575 160.37109375 -86.625 159.2421875 C-87.77744269 156.52478001 -88.99355089 153.85745436 -90.25 151.1875 C-91.95881564 147.41987034 -92.57298384 144.09935515 -93 140 C-93.33 139.67 -93.66 139.34 -94 139 C-97.12441396 110.81270211 -93.42316866 84.06071938 -75.7265625 61.04296875 C-71.45688066 55.77150072 -67.16267069 50.963873 -62.0625 46.5 C-61.05896484 45.61828125 -61.05896484 45.61828125 -60.03515625 44.71875 C-54.44772727 40 -54.44772727 40 -52 40 C-52 39.34 -52 38.68 -52 38 C-50.73308493 37.32591692 -49.46129251 36.66099503 -48.1875 36 C-47.47980469 35.62875 -46.77210938 35.2575 -46.04296875 34.875 C-44 34 -44 34 -41 34 C-41 33.34 -41 32.68 -41 32 C-40.14535156 31.72285156 -39.29070312 31.44570312 -38.41015625 31.16015625 C-37.30542969 30.79792969 -36.20070312 30.43570313 -35.0625 30.0625 C-33.96035156 29.70285156 -32.85820312 29.34320313 -31.72265625 28.97265625 C-29.11876525 28.26143332 -29.11876525 28.26143332 -28 27 C-26.55043603 26.63039006 -25.08985345 26.30340007 -23.625 26 C-20.99239863 25.45118408 -18.55817615 24.85272538 -16 24 C-13.26568283 23.77190557 -10.55075247 23.5835729 -7.8125 23.4375 C-3.9453125 23.2209375 -3.9453125 23.2209375 0 23 C0 15.41 0 7.82 0 0 Z " fill="#2D4052" transform="translate(236,69)"/>
<path d="M0 0 C14.11184095 0 32.24847716 0.85721771 44 10 C45.11375 10.474375 46.2275 10.94875 47.375 11.4375 C51.03195547 13.01377391 53.8382326 14.60939538 57 17 C57 17.66 57 18.32 57 19 C57.52722656 19.21398437 58.05445313 19.42796875 58.59765625 19.6484375 C61.94126714 21.52955842 64.63759935 24.03428504 67.4375 26.625 C68.01717529 27.16044434 68.59685059 27.69588867 69.1940918 28.24755859 C73.31490381 32.1466832 76.44350847 35.88701693 79 41 C79 41.66 79 42.32 79 43 C79.99 43.33 80.98 43.66 82 44 C96.11230934 66.50442929 98.12957752 94.54037532 92.8515625 120.05078125 C92 123 92 123 90 126 C89.443125 127.8871875 89.443125 127.8871875 88.875 129.8125 C85.70027514 139.67509702 79.55183187 149.04926349 73 157 C72.46117187 157.67160156 71.92234375 158.34320313 71.3671875 159.03515625 C68.35864527 162.69046239 68.35864527 162.69046239 67 164 C66.34 164 65.68 164 65 164 C65 164.66 65 165.32 65 166 C63.26451831 167.44526736 61.46024037 168.8087222 59.625 170.125 C58.62726563 170.84945312 57.62953125 171.57390625 56.6015625 172.3203125 C54 174 54 174 52 174 C52 174.66 52 175.32 52 176 C49.33705661 178.34071508 46.67065963 179.68686695 43.375 180.9375 C40.78448562 181.92400402 38.21627133 182.90282403 35.6875 184.0390625 C24.09761573 189.16836939 12.61048858 190 0 190 C0 174.82 0 159.64 0 144 C-2.31 144 -4.62 144 -7 144 C-15.52816509 142.21674285 -22.85003658 138.9189598 -30 134 C-30.9075 133.38125 -31.815 132.7625 -32.75 132.125 C-42.39095334 123.01965518 -48.85622407 110.47548024 -49.40405273 97.20141602 C-49.53298754 89.1971058 -48.18068686 82.36638241 -45 75 C-44.566875 73.91138672 -44.566875 73.91138672 -44.125 72.80078125 C-38.66940623 60.40391862 -27.88907193 52.84549641 -15.734375 47.98046875 C-10.62148855 46.63806865 -5.26791525 46.43899294 0 46 C0 30.82 0 15.64 0 0 Z " fill="#3190D0" transform="translate(236,93)"/>
<path d="M0 0 C0 7.59 0 15.18 0 23 C-7.6875 23.875 -7.6875 23.875 -10.08081055 24.13623047 C-14.04199306 24.61002977 -17.31570952 25.39183027 -21 27 C-22.0725 27.12375 -23.145 27.2475 -24.25 27.375 C-28.26916762 28.04486127 -31.26986308 29.35494054 -34.88671875 31.16015625 C-37 32 -37 32 -41 32 C-41 32.66 -41 33.32 -41 34 C-42.26691507 34.67408308 -43.53870749 35.33900497 -44.8125 36 C-45.52019531 36.37125 -46.22789062 36.7425 -46.95703125 37.125 C-49 38 -49 38 -52 38 C-52 38.66 -52 39.32 -52 40 C-53.5390625 41.33203125 -53.5390625 41.33203125 -55.625 42.8125 C-58.30403857 44.74577783 -60.88105804 46.70823359 -63.375 48.875 C-66 51 -66 51 -68 51 C-68.185625 51.66 -68.37125 52.32 -68.5625 53 C-69.93633184 55.86712732 -71.26052642 57.54772072 -73.375 59.875 C-76.58265195 63.41470702 -78.77430951 66.77886287 -81 71 C-81.9590625 72.546875 -81.9590625 72.546875 -82.9375 74.125 C-85.97937982 79.42724901 -87.93188575 85.2669622 -90 91 C-90.53173828 92.45792969 -90.53173828 92.45792969 -91.07421875 93.9453125 C-95.3665054 108.10804736 -94.61253267 124.45233146 -93 139 C-92.67 139.33 -92.34 139.66 -92 140 C-91.896875 140.99 -91.79375 141.98 -91.6875 143 C-91.17966738 146.89602835 -89.78018974 150.04896364 -88.12109375 153.5859375 C-86.91859389 156.17529261 -85.82142921 158.79133676 -84.75 161.4375 C-84.41484375 162.26121094 -84.0796875 163.08492187 -83.734375 163.93359375 C-83 166 -83 166 -83 168 C-82.34 168 -81.68 168 -81 168 C-79.82881699 169.68449748 -78.73757338 171.42495999 -77.6875 173.1875 C-75.0961805 177.40177535 -72.57551891 180.63480573 -69 184 C-68.67 184.99 -68.34 185.98 -68 187 C-65.99983534 188.20882096 -65.99983534 188.20882096 -64 189 C-64 189.66 -64 190.32 -64 191 C-63.0409375 191.1546875 -63.0409375 191.1546875 -62.0625 191.3125 C-61.0415625 191.6528125 -61.0415625 191.6528125 -60 192 C-59.67 192.99 -59.34 193.98 -59 195 C-57.67288808 195.35729936 -56.33737094 195.68325425 -55 196 C-52.60597431 197.24324939 -50.31887642 198.6175929 -48 200 C-48 200.66 -48 201.32 -48 202 C-47.47792969 202.17015625 -46.95585937 202.3403125 -46.41796875 202.515625 C-40.2317864 204.55240658 -34.11141892 206.74962705 -28 209 C-28 209.66 -28 210.32 -28 211 C-26.576875 210.9690625 -26.576875 210.9690625 -25.125 210.9375 C-22 211 -22 211 -20 212 C-18.48181898 212.218654 -16.95666749 212.39018979 -15.4296875 212.53515625 C-14.62257324 212.61386963 -13.81545898 212.69258301 -12.98388672 212.77368164 C-11.44498779 212.91664673 -11.44498779 212.91664673 -9.875 213.0625 C-6.61625 213.371875 -3.3575 213.68125 0 214 C0 221.92 0 229.84 0 238 C-13.98221063 238 -13.98221063 238 -20.875 236.75 C-21.63022949 236.61940186 -22.38545898 236.48880371 -23.16357422 236.35424805 C-30.26293698 235.06746054 -37.12465336 233.17756156 -44 231 C-44 230.34 -44 229.68 -44 229 C-44.67289062 229.07605469 -45.34578125 229.15210938 -46.0390625 229.23046875 C-50.0154126 228.92096393 -52.96223135 227.22547354 -56.375 225.3125 C-57.04112305 224.94745361 -57.70724609 224.58240723 -58.39355469 224.20629883 C-63.4120433 221.41927613 -68.43337529 218.61378054 -72.48828125 214.484375 C-74.12371165 212.78351226 -74.12371165 212.78351226 -76.9375 211.0625 C-79.67468921 209.21908686 -81.8448531 207.48670796 -84 205 C-84 204.34 -84 203.68 -84 203 C-84.61875 202.71125 -85.2375 202.4225 -85.875 202.125 C-88 201 -88 201 -90 199 C-90 198.01 -90 197.02 -90 196 C-90.66 196 -91.32 196 -92 196 C-93.2890625 194.5390625 -93.2890625 194.5390625 -94.625 192.625 C-95.07101563 191.99851562 -95.51703125 191.37203125 -95.9765625 190.7265625 C-97 189 -97 189 -97 187 C-97.99 186.67 -98.98 186.34 -100 186 C-100.69040574 184.34302621 -101.3530635 182.6744239 -102 181 C-102.639375 180.278125 -103.27875 179.55625 -103.9375 178.8125 C-106.81970623 174.88221878 -107.80105274 170.6777109 -109 166 C-109.66 166 -110.32 166 -111 166 C-111.10957031 165.443125 -111.21914062 164.88625 -111.33203125 164.3125 C-111.49058594 163.549375 -111.64914063 162.78625 -111.8125 162 C-111.96332031 161.2575 -112.11414063 160.515 -112.26953125 159.75 C-112.87851778 157.45734483 -113.6039981 155.38800157 -114.46875 153.1875 C-124.70322623 126.38813735 -119.05736191 95.1754828 -110 69 C-109.34 69 -108.68 69 -108 69 C-107.505 67.14375 -107.505 67.14375 -107 65.25 C-104.49582682 57.66524468 -99.71846022 50.55554112 -94 45 C-93.360625 44.030625 -92.72125 43.06125 -92.0625 42.0625 C-90.21908686 39.32531079 -88.48670796 37.1551469 -86 35 C-85.34 35 -84.68 35 -84 35 C-83.7525 34.4225 -83.505 33.845 -83.25 33.25 C-81.81700012 30.67060021 -80.21575324 28.93878408 -78 27 C-77.34 27 -76.68 27 -76 27 C-76 26.34 -76 25.68 -76 25 C-74.33520508 23.703125 -74.33520508 23.703125 -72.01953125 22.25 C-71.18486328 21.7240625 -70.35019531 21.198125 -69.49023438 20.65625 C-68.16475586 19.83640625 -68.16475586 19.83640625 -66.8125 19 C-65.94818359 18.4534375 -65.08386719 17.906875 -64.19335938 17.34375 C-60.19052666 14.84082931 -56.40242171 12.72167116 -52 11 C-51.27683594 10.52691406 -50.55367188 10.05382812 -49.80859375 9.56640625 C-45.75985726 7.30834877 -41.51250427 6.18085441 -37.0625 4.9375 C-36.12607666 4.67437012 -35.18965332 4.41124023 -34.22485352 4.14013672 C-22.77128952 1.00937127 -11.90131174 -0.2902759 0 0 Z " fill="#1A252F" transform="translate(236,69)"/>
<path d="M0 0 C22.24327791 -0.4157622 41.83756879 4.44005508 61 16 C61.928125 16.53109375 62.85625 17.0621875 63.8125 17.609375 C76.36212384 25.0963665 86.55168406 35.98070516 96 47 C96.78375 47.886875 97.5675 48.77375 98.375 49.6875 C100.12607767 52.17941822 100.65686319 53.99755291 101 57 C101.66 57 102.32 57 103 57 C118.38541743 85.23477704 124.85550636 118.86183376 116.046875 150.4140625 C115.10271465 153.30995731 114.07572046 156.1510216 113 159 C112.6803125 160.00675781 112.360625 161.01351562 112.03125 162.05078125 C111.07484572 164.78595257 109.9620273 167.07081323 108.5 169.5625 C107.16148116 171.85185692 105.99877128 174.00318464 105.04296875 176.48046875 C103.12441686 181.11517276 99.94834338 184.97181069 97 189 C96.49726563 189.7115625 95.99453125 190.423125 95.4765625 191.15625 C87.47825479 202.03719653 77.43927334 211.83086637 66 219 C64.60394531 219.95712891 64.60394531 219.95712891 63.1796875 220.93359375 C43.80135618 233.52712848 22.93252361 238.4286453 0 238 C0 230.08 0 222.16 0 214 C2.97 213.773125 5.94 213.54625 9 213.3125 C21.54119835 212.17211061 32.90815406 209.06912325 44 203 C46.6522856 201.88014608 49.26844168 200.91051944 52 200 C52 199.34 52 198.68 52 198 C53.73548169 196.55473264 55.53975963 195.1912778 57.375 193.875 C58.87160156 192.78832031 58.87160156 192.78832031 60.3984375 191.6796875 C63 190 63 190 65 190 C65 189.34 65 188.68 65 188 C66.875 185.875 66.875 185.875 69 184 C69.66 184 70.32 184 71 184 C71.27585937 183.41992188 71.55171875 182.83984375 71.8359375 182.2421875 C72.96633484 180.06484497 74.22392355 178.13660139 75.625 176.125 C81.32715816 167.64881895 86.90256194 158.78138335 90 149 C90.26425781 148.20078125 90.52851563 147.4015625 90.80078125 146.578125 C98.96735714 121.03338524 93.82752243 93.49049832 82.2109375 70.0234375 C80.9924671 67.98741277 79.68409493 66.65409833 78 65 C77.00316213 63.51168497 76.02595109 62.01014217 75.0625 60.5 C66.67006691 48.29607811 54.20785384 39.33976984 41 33 C40.03320312 32.52046875 40.03320312 32.52046875 39.046875 32.03125 C26.54991761 26.0974429 13.60595103 25.19511732 0 24 C0 16.08 0 8.16 0 0 Z " fill="#1A4C6D" transform="translate(236,69)"/>
<path d="M0 0 C2.22979471 1.95063418 3.92550803 3.68229057 5.49609375 6.18359375 C5.49609375 6.84359375 5.49609375 7.50359375 5.49609375 8.18359375 C6.15609375 8.18359375 6.81609375 8.18359375 7.49609375 8.18359375 C14.25962567 22.13603695 18.81623703 34.99003608 13.75219727 50.43798828 C9.85557346 61.0445555 3.61456393 69.43592581 -5.50390625 76.18359375 C-6.08398438 76.62316406 -6.6640625 77.06273437 -7.26171875 77.515625 C-17.10752821 84.33353909 -28.73190609 86.47693009 -40.50390625 85.18359375 C-49.08697789 83.43954495 -56.31465975 80.12957913 -63.50390625 75.18359375 C-64.41140625 74.56484375 -65.31890625 73.94609375 -66.25390625 73.30859375 C-75.89485959 64.20324893 -82.36013032 51.65907399 -82.90795898 38.38500977 C-83.03689379 30.38069955 -81.68459311 23.54997616 -78.50390625 16.18359375 C-78.07078125 15.09498047 -78.07078125 15.09498047 -77.62890625 13.984375 C-72.70647163 2.79902132 -62.99932684 -5.19840951 -51.87890625 -9.62890625 C-33.04269405 -16.67538273 -15.51151423 -11.88598102 0 0 Z " fill="#9ACAEC" transform="translate(269.50390625,151.81640625)"/>
<path d="M0 0 C14.05531304 -0.52707424 32.4937256 1.04802303 44 10 C45.11375 10.474375 46.2275 10.94875 47.375 11.4375 C51.03195547 13.01377391 53.8382326 14.60939538 57 17 C57 17.66 57 18.32 57 19 C57.79083984 19.32097656 57.79083984 19.32097656 58.59765625 19.6484375 C61.94126714 21.52955842 64.63759935 24.03428504 67.4375 26.625 C68.01717529 27.16044434 68.59685059 27.69588867 69.1940918 28.24755859 C73.31490381 32.1466832 76.44350847 35.88701693 79 41 C79 41.66 79 42.32 79 43 C80.485 43.495 80.485 43.495 82 44 C96.11230934 66.50442929 98.12957752 94.54037532 92.8515625 120.05078125 C92 123 92 123 90 126 C89.443125 127.8871875 89.443125 127.8871875 88.875 129.8125 C85.70027514 139.67509702 79.55183187 149.04926349 73 157 C72.46117187 157.67160156 71.92234375 158.34320313 71.3671875 159.03515625 C68.35864527 162.69046239 68.35864527 162.69046239 67 164 C66.34 164 65.68 164 65 164 C65 164.66 65 165.32 65 166 C63.26451831 167.44526736 61.46024037 168.8087222 59.625 170.125 C58.12839844 171.21167969 58.12839844 171.21167969 56.6015625 172.3203125 C54 174 54 174 52 174 C52 174.66 52 175.32 52 176 C49.33705661 178.34071508 46.67065963 179.68686695 43.375 180.9375 C40.78448562 181.92400402 38.21627133 182.90282403 35.6875 184.0390625 C24.33089873 189.0651259 12.30637504 190.46148906 0 190 C0 183.73 0 177.46 0 171 C3.09244792 170.77213542 6.18489583 170.54427083 9.27734375 170.31640625 C11.91109903 170.29581916 11.91109903 170.29581916 13 169 C15.52195967 168.60056824 18.02963656 168.24920152 20.5625 167.9375 C21.62887695 167.80118164 21.62887695 167.80118164 22.71679688 167.66210938 C24.47738403 167.43760497 26.23863478 167.21831603 28 167 C28 166.34 28 165.68 28 165 C28.95261719 164.63648438 29.90523438 164.27296875 30.88671875 163.8984375 C37.69118778 161.2077519 42.67905742 159.10015423 47 153 C48.3463992 151.94173023 49.72418257 150.92260722 51.125 149.9375 C54.36377484 147.61627676 56.15799692 145.58705863 58 142 C59.5625 140.1875 59.5625 140.1875 61 139 C61.66 139 62.32 139 63 139 C63 138.01 63 137.02 63 136 C64.485 135.01 64.485 135.01 66 134 C68.09037553 130.38204235 69.3920502 127.13405862 70 123 C70.66 123 71.32 123 72 123 C72.13277344 121.92878906 72.26554687 120.85757813 72.40234375 119.75390625 C72.5805056 118.35674231 72.75890319 116.95960841 72.9375 115.5625 C73.02451172 114.85544922 73.11152344 114.14839844 73.20117188 113.41992188 C73.88671875 108.11328125 73.88671875 108.11328125 75 107 C76.22641577 93.98446856 75.49875082 81.5732538 71.09375 69.265625 C70 66 70 66 70 62 C69.34 62 68.68 62 68 62 C68 61.01 68 60.02 68 59 C67.34 59 66.68 59 66 59 C63 53.25 63 53.25 63 51 C62.34 51 61.68 51 61 51 C60.5875 50.05125 60.175 49.1025 59.75 48.125 C57.86766323 44.76368434 57.24051835 44.56799275 54 43 C53.33333333 41.33333333 52.66666667 39.66666667 52 38 C50.06616713 36.69934079 50.06616713 36.69934079 48 36 C47.01 35.505 47.01 35.505 46 35 C46 34.34 46 33.68 46 33 C45.0409375 32.814375 45.0409375 32.814375 44.0625 32.625 C43.381875 32.41875 42.70125 32.2125 42 32 C41.505 31.01 41.505 31.01 41 30 C38.65961814 28.86897474 38.65961814 28.86897474 35.9375 27.875 C35.01839844 27.52179688 34.09929687 27.16859375 33.15234375 26.8046875 C32.44207031 26.53914063 31.73179687 26.27359375 31 26 C31 25.34 31 24.68 31 24 C24.66226532 22.46667709 18.49850211 21.51553879 12 21 C12 20.34 12 19.68 12 19 C8.04 19 4.08 19 0 19 C0 12.73 0 6.46 0 0 Z " fill="#2978AD" transform="translate(236,93)"/>
<path d="M0 0 C0 8.25 0 16.5 0 25 C-4.95 26.485 -4.95 26.485 -10 28 C-15.25323177 30.08146919 -17.73361353 32.52038427 -21 37 C-21.33 37.99 -21.66 38.98 -22 40 C-22.66 40 -23.32 40 -24 40 C-24.02719556 42.37507855 -24.04693247 44.74983964 -24.0625 47.125 C-24.07087891 47.79015625 -24.07925781 48.4553125 -24.08789062 49.140625 C-24.10782292 53.20681354 -23.78890161 57.0120092 -23 61 C-22.34 61 -21.68 61 -21 61 C-20.484375 61.886875 -19.96875 62.77375 -19.4375 63.6875 C-16.71007691 67.96620834 -12.68255405 70.24053732 -8 72 C-5.36 72.33 -2.72 72.66 0 73 C0 81.25 0 89.5 0 98 C-11.43724164 98 -20.63750503 94.44111496 -30 88 C-30.9075 87.38125 -31.815 86.7625 -32.75 86.125 C-42.39095334 77.01965518 -48.85622407 64.47548024 -49.40405273 51.20141602 C-49.53298754 43.1971058 -48.18068686 36.36638241 -45 29 C-44.566875 27.91138672 -44.566875 27.91138672 -44.125 26.80078125 C-39.20256538 15.61542757 -29.49542059 7.61799674 -18.375 3.1875 C-12.02226037 0.81099086 -6.81270634 0 0 0 Z " fill="#98A3AD" transform="translate(236,139)"/>
<path d="M0 0 C0 0.66 0 1.32 0 2 C0.59683594 2.10183594 1.19367188 2.20367187 1.80859375 2.30859375 C6.2525541 3.71069889 8.92065008 7.98574847 11.05078125 11.9609375 C14.24304313 19.61631433 13.22366832 26.21716087 11 34 C10.34 34 9.68 34 9 34 C8.95875 34.556875 8.9175 35.11375 8.875 35.6875 C6.96614533 40.73233021 2.03814737 43.19736274 -2.625 45.375 C-9.35991163 47.85628323 -15.94058273 47.57899837 -22.62109375 44.98046875 C-27.02251018 42.70387404 -30.33694201 40.2840498 -33 36 C-33 35.34 -33 34.68 -33 34 C-33.66 34 -34.32 34 -35 34 C-37.80324191 27.34230047 -37.8558792 19.95954701 -36 13 C-35.34 13 -34.68 13 -34 13 C-33.95875 12.29875 -33.9175 11.5975 -33.875 10.875 C-32.63096269 6.78744884 -30.39720413 4.43133237 -27 2 C-18.24797782 -2.45831851 -9.22411177 -3.88383653 0 0 Z " fill="#CCE4F7" transform="translate(248,166)"/>
<path d="M0 0 C3.04526396 1.6869894 4.44677335 3.8935467 6 7 C6.12298713 9.49496163 6.1883444 11.96094817 6.203125 14.45703125 C6.20882507 15.19700851 6.21452515 15.93698578 6.22039795 16.6993866 C6.22985018 18.26710581 6.23638282 19.83484491 6.24023438 21.40258789 C6.24992032 23.79283707 6.28093195 26.18221905 6.3125 28.57226562 C6.31903223 30.09634907 6.32428184 31.62043865 6.328125 33.14453125 C6.3404718 33.85615921 6.3528186 34.56778717 6.36553955 35.30097961 C6.34589783 39.71136967 5.72325595 42.500657 3 46 C-1.98464573 48.73324741 -7.46167661 48.83989589 -13 48 C-15.89683868 45.7984026 -17.39297231 44.21405538 -19 41 C-19.30731394 35.91727896 -19.35636485 30.83400724 -19.4050293 25.74291992 C-19.42661081 24.04447092 -19.46071626 22.34613319 -19.50756836 20.64819336 C-19.57460609 18.19594829 -19.60203007 15.74600107 -19.62109375 13.29296875 C-19.64892441 12.53759323 -19.67675507 11.78221771 -19.70542908 11.00395203 C-19.69413303 8.09734185 -19.57852942 5.73351424 -17.73649597 3.39801025 C-12.34372258 -1.3184875 -6.78517797 -1.12646275 0 0 Z " fill="#E8E8E8" transform="translate(221,331)"/>
<path d="M0 0 C17 0 17 0 23 4 C24.48131672 6.96263344 24.18327691 9.98857928 24.203125 13.23828125 C24.20882507 13.95606247 24.21452515 14.67384369 24.22039795 15.41337585 C24.22984952 16.93401617 24.23638256 18.45467699 24.24023438 19.9753418 C24.24991925 22.29317389 24.2809308 24.61011125 24.3125 26.92773438 C24.31903237 28.40624474 24.32428192 29.88476145 24.328125 31.36328125 C24.3404718 32.05303543 24.3528186 32.74278961 24.36553955 33.45344543 C24.34554536 37.80959553 23.74930898 40.58587364 21 44 C17 46 17 46 0 46 C0 30.82 0 15.64 0 0 Z " fill="#E5E5E5" transform="translate(167,332)"/>
<path d="M0 0 C0 15.84 0 31.68 0 48 C-8.01839976 48 -10.87261806 47.43001287 -17 43 C-21 38.80487805 -21 38.80487805 -21 36 C-21.66 36 -22.32 36 -23 36 C-25.80324191 29.34230047 -25.8558792 21.95954701 -24 15 C-23.34 15 -22.68 15 -22 15 C-21.95875 14.29875 -21.9175 13.5975 -21.875 12.875 C-20.63336424 8.79533964 -18.40766681 6.41046199 -15 4 C-10.00629991 1.65469288 -5.5433741 0 0 0 Z " fill="#CBD1D6" transform="translate(236,164)"/>
<path d="M0 0 C1.98 0 3.96 0 6 0 C6.02505615 1.20648193 6.0501123 2.41296387 6.07592773 3.65600586 C6.16982523 8.11575661 6.27008833 12.57534513 6.37231445 17.03491211 C6.41573041 18.96814185 6.45740042 20.90141159 6.49731445 22.8347168 C6.55485631 25.60738202 6.6185962 28.37984457 6.68359375 31.15234375 C6.70030624 32.02213364 6.71701874 32.89192352 6.73423767 33.78807068 C6.45026213 37.71115966 6.45026213 37.71115966 8 41 C11.3 41 14.6 41 18 41 C18 27.47 18 13.94 18 0 C19.98 0 21.96 0 24 0 C24 13.53 24 27.06 24 41 C31.37828793 42.41113217 31.37828793 42.41113217 36 41 C36.33 27.47 36.66 13.94 37 0 C38.65 0 40.3 0 42 0 C42.12377604 5.74739758 42.21442248 11.49401627 42.2746582 17.24243164 C42.29977281 19.19699623 42.33387131 21.15146717 42.37719727 23.10571289 C42.43798434 25.91836668 42.46623983 28.72977702 42.48828125 31.54296875 C42.51408768 32.41398727 42.5398941 33.2850058 42.56648254 34.18241882 C42.56855964 38.69501199 42.48175509 40.4088266 39.53198242 44.02856445 C38.69642822 44.67913818 37.86087402 45.32971191 37 46 C36.67 46.33 36.34 46.66 36 47 C34.37747508 47.09886353 32.75052727 47.12971167 31.125 47.125 C30.24070312 47.12757813 29.35640625 47.13015625 28.4453125 47.1328125 C26 47 26 47 23 46 C23 45.34 23 44.68 23 44 C22.030625 44.495 21.06125 44.99 20.0625 45.5 C15.7110554 47.35355652 11.67072031 47.65477388 7 47 C3.9375 45.6875 3.9375 45.6875 2 44 C2 43.01 2 42.02 2 41 C1.34 41 0.68 41 0 41 C0 27.47 0 13.94 0 0 Z " fill="#EAEAEA" transform="translate(238,332)"/>
<path d="M0 0 C2.88294813 1.78064443 3.69319992 3.21703653 5.125 6.3125 C5.52689974 9.39728701 5.47461141 12.44446114 5.41796875 15.55078125 C5.41372391 16.43154831 5.40947906 17.31231537 5.40510559 18.21977234 C5.38836644 21.0218311 5.3507233 23.82316009 5.3125 26.625 C5.29744699 28.52928646 5.28375966 30.43358424 5.27148438 32.33789062 C5.23847854 36.99637322 5.18672929 41.65431305 5.125 46.3125 C3.805 45.9825 2.485 45.6525 1.125 45.3125 C1.125 44.6525 1.125 43.9925 1.125 43.3125 C0.135 43.9725 -0.855 44.6325 -1.875 45.3125 C-6.16333037 47.73445177 -8.98725068 48.022012 -13.875 47.3125 C-16.56605198 45.13675584 -18.33032928 43.40184144 -19.875 40.3125 C-20.05022676 38.04604234 -20.14228256 35.77277146 -20.1875 33.5 C-20.22488281 32.27667969 -20.26226562 31.05335938 -20.30078125 29.79296875 C-19.80480695 25.7387201 -18.72399719 24.17206861 -15.875 21.3125 C-12.99084117 19.87042059 -10.45778472 20.21855113 -7.25 20.25 C-6.06148437 20.25902344 -4.87296875 20.26804687 -3.6484375 20.27734375 C-2.73320312 20.28894531 -1.81796875 20.30054688 -0.875 20.3125 C-1.01526283 17.99965544 -1.16235558 15.68722409 -1.3125 13.375 C-1.39371094 12.08722656 -1.47492188 10.79945313 -1.55859375 9.47265625 C-1.52419188 6.45226043 -1.52419188 6.45226043 -2.875 5.3125 C-4.39428038 5.24070036 -5.91667482 5.22857993 -7.4375 5.25 C-8.26378906 5.25902344 -9.09007812 5.26804687 -9.94140625 5.27734375 C-10.89853516 5.29474609 -10.89853516 5.29474609 -11.875 5.3125 C-12.205 7.9525 -12.535 10.5925 -12.875 13.3125 C-14.855 13.3125 -16.835 13.3125 -18.875 13.3125 C-19.50089928 5.17580935 -19.50089928 5.17580935 -17.0625 1.8125 C-11.97306557 -1.6773979 -5.82297988 -1.39245171 0 0 Z " fill="#E6E6E6" transform="translate(149.875,331.6875)"/>
<path d="M0 0 C1.01707031 -0.03996094 2.03414063 -0.07992188 3.08203125 -0.12109375 C6.36859475 0.47007428 8.56341701 1.41211836 11.04272461 3.69262695 C13.42445075 7.32286724 12.79269922 11.5739501 12.5625 15.75 C12.53542969 16.68134766 12.50835937 17.61269531 12.48046875 18.57226562 C12.41002534 20.86167635 12.3024125 23.14989014 12.1875 25.4375 C6.2475 25.4375 0.3075 25.4375 -5.8125 25.4375 C-5.668125 27.87125 -5.52375 30.305 -5.375 32.8125 C-5.33189697 33.57739746 -5.28879395 34.34229492 -5.24438477 35.13037109 C-5.05040296 38.90931316 -5.05040296 38.90931316 -3.8125 42.4375 C0.19004456 42.52931134 0.19004456 42.52931134 4.1875 42.4375 C6.15572886 40.46927114 5.84998381 37.08941291 6.1875 34.4375 C8.1675 34.4375 10.1475 34.4375 12.1875 34.4375 C12.81540698 42.6002907 12.81540698 42.6002907 10.3125 45.9375 C5.36854905 49.42734773 0.07467629 49.15181072 -5.8125 48.4375 C-9.29492391 45.91103559 -10.46476822 44.48069535 -11.8125 40.4375 C-11.93270641 37.98273939 -12.00051507 35.55714156 -12.015625 33.1015625 C-12.02132507 32.38519623 -12.02702515 31.66882996 -12.03289795 30.93075562 C-12.04233536 29.41609163 -12.04887693 27.90140723 -12.05273438 26.38671875 C-12.06243589 24.07775797 -12.09346775 21.76968931 -12.125 19.4609375 C-12.13153105 17.98698443 -12.13678112 16.51302502 -12.140625 15.0390625 C-12.1529718 14.35244537 -12.1653186 13.66582825 -12.17803955 12.95840454 C-12.15794975 8.60303043 -11.48998076 5.89061886 -8.8125 2.4375 C-5.43349918 0.18483279 -3.98404663 0.08519345 0 0 Z " fill="#EBEBEB" transform="translate(329.8125,330.5625)"/>
<path d="M0 0 C2.4375 1.625 2.4375 1.625 3.4375 3.625 C3.50783769 5.49879605 3.5218022 7.37501102 3.5 9.25 C3.49097656 10.25289063 3.48195313 11.25578125 3.47265625 12.2890625 C3.46105469 13.05992187 3.44945313 13.83078125 3.4375 14.625 C1.4575 14.625 -0.5225 14.625 -2.5625 14.625 C-3.0575 9.675 -3.0575 9.675 -3.5625 4.625 C-8.06475924 4.53285142 -8.06475924 4.53285142 -12.5625 4.625 C-13.82504923 5.7013491 -13.82504923 5.7013491 -14.0625 8.1875 C-12.90763275 16.12721231 -4.09398013 22.16376713 1.3984375 27.5234375 C4.56789021 30.79003819 4.72215911 33.05035375 4.65625 37.58984375 C4.33670564 40.56274757 3.32339752 42.33498159 1.4375 44.625 C-3.21576783 47.55255261 -8.25088006 47.13724821 -13.5625 46.625 C-16.62627587 45.37447924 -17.9621789 44.60236488 -19.67578125 41.8125 C-20.68354661 39.32638281 -20.76601966 37.5446685 -20.6875 34.875 C-20.66945312 34.07578125 -20.65140625 33.2765625 -20.6328125 32.453125 C-20.60960937 31.84984375 -20.58640625 31.2465625 -20.5625 30.625 C-18.5825 30.625 -16.6025 30.625 -14.5625 30.625 C-14.2325 34.255 -13.9025 37.885 -13.5625 41.625 C-11.933125 41.480625 -10.30375 41.33625 -8.625 41.1875 C-7.70847656 41.10628906 -6.79195312 41.02507812 -5.84765625 40.94140625 C-3.60090268 40.86455024 -3.60090268 40.86455024 -2.5625 39.625 C-2.02637791 36.21097451 -1.80679074 33.72029829 -3.83056641 30.78710938 C-5.60775769 28.89020558 -7.45289635 27.12477711 -9.375 25.375 C-10.01759766 24.76398438 -10.66019531 24.15296875 -11.32226562 23.5234375 C-12.51927576 22.38720819 -13.72335862 21.25834813 -14.93676758 20.13964844 C-15.47325928 19.63981445 -16.00975098 19.13998047 -16.5625 18.625 C-17.10608154 18.12774414 -17.64966309 17.63048828 -18.2097168 17.11816406 C-21.1300555 13.89477632 -20.89167075 9.89625229 -20.8515625 5.78515625 C-20.5625 3.625 -20.5625 3.625 -18.75 1.125 C-13.19997194 -2.68073353 -6.07639897 -2.34527679 0 0 Z " fill="#E7E7E7" transform="translate(77.5625,332.375)"/>
<path d="M0 0 C1.03769531 -0.02578125 2.07539063 -0.0515625 3.14453125 -0.078125 C6.58610214 0.29298149 8.42290073 1.20508995 11.1875 3.25 C12.50979189 5.89458379 12.28427194 7.92761301 12.25 10.875 C12.24097656 11.87789063 12.23195313 12.88078125 12.22265625 13.9140625 C12.21105469 14.68492187 12.19945312 15.45578125 12.1875 16.25 C10.5375 16.25 8.8875 16.25 7.1875 16.25 C7.12691406 15.61191406 7.06632812 14.97382813 7.00390625 14.31640625 C6.87822266 13.07697266 6.87822266 13.07697266 6.75 11.8125 C6.66878906 10.98878906 6.58757812 10.16507812 6.50390625 9.31640625 C6.39819185 7.26337975 6.39819185 7.26337975 5.1875 6.25 C3.69011876 6.1520943 2.18807108 6.12025136 0.6875 6.125 C-0.1271875 6.12242187 -0.941875 6.11984375 -1.78125 6.1171875 C-3.80780377 6.0254822 -3.80780377 6.0254822 -4.8125 7.25 C-4.8125 13.13345641 -2.9236257 15.84315549 1 20.09375 C2.57495874 21.64620933 4.20829605 23.14022912 5.875 24.59375 C12.91063345 30.90983003 12.91063345 30.90983003 13.82421875 35.33203125 C13.81377119 38.04491561 13.64461753 40.578402 13.1875 43.25 C12.5275 43.25 11.8675 43.25 11.1875 43.25 C10.8575 44.24 10.5275 45.23 10.1875 46.25 C5.52237986 49.44986301 -0.421135 48.99389053 -5.8125 48.25 C-8.78611086 46.03436838 -10.18209793 44.51080415 -11.8125 41.25 C-11.88200541 39.70976004 -11.89702357 38.16665012 -11.875 36.625 C-11.86597656 35.80773437 -11.85695313 34.99046875 -11.84765625 34.1484375 C-11.83605469 33.52195312 -11.82445312 32.89546875 -11.8125 32.25 C-9.8325 32.25 -7.8525 32.25 -5.8125 32.25 C-5.75191406 32.88808594 -5.69132812 33.52617187 -5.62890625 34.18359375 C-5.50322266 35.42302734 -5.50322266 35.42302734 -5.375 36.6875 C-5.29378906 37.51121094 -5.21257812 38.33492188 -5.12890625 39.18359375 C-5.02319185 41.23662025 -5.02319185 41.23662025 -3.8125 42.25 C1.36485677 42.62052339 1.36485677 42.62052339 6.1875 41.25 C6.60581404 37.96000718 6.60581404 37.96000718 6.1875 34.25 C4.06390616 31.62500791 4.06390616 31.62500791 1.1875 29.25 C0.17104537 28.07655369 -0.82844726 26.88824829 -1.8125 25.6875 C-3.66461787 23.47736966 -5.24986153 21.91203881 -7.5625 20.125 C-11.0009919 17.25959008 -11.63261274 14.65911688 -12.1875 10.3125 C-11.70915688 6.40603116 -10.23129021 4.3090582 -7.8125 1.25 C-5.13594199 -0.08827901 -2.98815948 0.04421444 0 0 Z " fill="#E7E7E7" transform="translate(401.8125,330.75)"/>
<path d="M0 0 C0.85207031 -0.04898437 1.70414062 -0.09796875 2.58203125 -0.1484375 C6.48943644 0.63655845 7.76676171 2.23413076 10.1875 5.375 C10.86832349 8.60997598 10.7709716 11.75723213 10.67578125 15.05078125 C10.66870651 15.9759404 10.66163177 16.90109955 10.65434265 17.85429382 C10.62642815 20.79953003 10.56369557 23.74284173 10.5 26.6875 C10.4749133 28.68812352 10.45210078 30.68877694 10.43164062 32.68945312 C10.37661108 37.58537316 10.29035901 42.47986068 10.1875 47.375 C8.2075 47.375 6.2275 47.375 4.1875 47.375 C3.6925 26.585 3.6925 26.585 3.1875 5.375 C-4.08940331 5.67567119 -4.08940331 5.67567119 -6.78547668 7.69819641 C-8.67828137 10.78854659 -8.29660668 14.45558927 -8.32421875 17.98046875 C-8.34216995 18.81967361 -8.36012115 19.65887848 -8.37861633 20.52351379 C-8.43278563 23.20312479 -8.46663573 25.88255702 -8.5 28.5625 C-8.53316729 30.37958221 -8.5676564 32.1966408 -8.60351562 34.01367188 C-8.68851572 38.46731905 -8.75529502 42.92091259 -8.8125 47.375 C-10.4625 47.375 -12.1125 47.375 -13.8125 47.375 C-13.8125 32.195 -13.8125 17.015 -13.8125 1.375 C-12.8225 1.375 -11.8325 1.375 -10.8125 1.375 C-10.8125 2.695 -10.8125 4.015 -10.8125 5.375 C-10.1525 5.375 -9.4925 5.375 -8.8125 5.375 C-8.379375 4.4159375 -8.379375 4.4159375 -7.9375 3.4375 C-6.04125368 -0.03895159 -3.70199104 0.1443055 0 0 Z " fill="#E9E9E9" transform="translate(368.8125,330.625)"/>
<path d="M0 0 C1.65 0 3.3 0 5 0 C5 6.93 5 13.86 5 21 C9.62 21 14.24 21 19 21 C19 14.07 19 7.14 19 0 C20.65 0 22.3 0 24 0 C24 15.18 24 30.36 24 46 C22.35 46 20.7 46 19 46 C19 39.07 19 32.14 19 25 C14.38 25 9.76 25 5 25 C5 31.93 5 38.86 5 46 C3.35 46 1.7 46 0 46 C0 30.82 0 15.64 0 0 Z " fill="#F7F7F7" transform="translate(94,332)"/>
<path d="M0 0 C2.52584607 2.52584607 2.23704324 4.09206493 2.25224304 7.5372467 C2.24505753 8.28936935 2.23787201 9.041492 2.23046875 9.81640625 C2.22978142 10.97389626 2.22978142 10.97389626 2.2290802 12.1547699 C2.22605787 13.78638242 2.21817213 15.41799205 2.20581055 17.04956055 C2.18754787 19.55593 2.18530088 22.06193033 2.18554688 24.56835938 C2.18063198 26.15104488 2.17480379 27.73372787 2.16796875 29.31640625 C2.16685593 30.07055313 2.1657431 30.82470001 2.16459656 31.60169983 C2.11605119 36.88394881 2.11605119 36.88394881 1 38 C-0.64230364 38.1245486 -2.29052276 38.17568524 -3.9375 38.1875 C-4.83339844 38.20167969 -5.72929687 38.21585937 -6.65234375 38.23046875 C-9 38 -9 38 -11 36 C-11.17510386 33.34708243 -11.23155483 30.80013826 -11.1953125 28.1484375 C-11.1924826 27.37440582 -11.18965271 26.60037415 -11.18673706 25.80288696 C-11.17552754 23.32676843 -11.15042203 20.8510095 -11.125 18.375 C-11.11497118 16.69792188 -11.10584516 15.02083811 -11.09765625 13.34375 C-11.07558574 9.22902777 -11.04105102 5.11457489 -11 1 C-6.99681565 -1.29257254 -4.51356535 -1.00301452 0 0 Z " fill="#040404" transform="translate(219,336)"/>
<path d="M0 0 C3.3 0 6.6 0 10 0 C13.19124845 4.78687268 12.33326278 10.28171241 12.31567383 15.87890625 C12.31251091 17.9927105 12.33599013 20.10511846 12.36132812 22.21875 C12.36360095 23.56249824 12.36430469 24.90625023 12.36328125 26.25 C12.36626221 27.47203125 12.36924316 28.6940625 12.37231445 29.953125 C12 33 12 33 9 36 C6.03 36 3.06 36 0 36 C0 24.12 0 12.24 0 0 Z " fill="#010101" transform="translate(173,337)"/>
<path d="M0 0 C1.65 0 3.3 0 5 0 C5 13.86 5 27.72 5 42 C9.29 42 13.58 42 18 42 C18 43.32 18 44.64 18 46 C12.06 46 6.12 46 0 46 C0 30.82 0 15.64 0 0 Z " fill="#F6F6F6" transform="translate(293,332)"/>
<path d="M0 0 C0.99773437 0.02320313 1.99546875 0.04640625 3.0234375 0.0703125 C4.52777344 0.09738281 4.52777344 0.09738281 6.0625 0.125 C6.83335937 0.14820313 7.60421875 0.17140625 8.3984375 0.1953125 C8.53369889 2.44365746 8.63054554 4.69433764 8.7109375 6.9453125 C8.79794922 8.82476562 8.79794922 8.82476562 8.88671875 10.7421875 C8.3984375 14.1953125 8.3984375 14.1953125 6.11328125 16.62890625 C2.66928478 18.61601788 0.31202559 18.57161905 -3.6015625 18.1953125 C-5.58275605 16.21411895 -4.78656661 12.46086186 -4.7890625 9.7578125 C-4.80130859 9.06365234 -4.81355469 8.36949219 -4.82617188 7.65429688 C-4.83146092 5.83310349 -4.72325457 4.0124433 -4.6015625 2.1953125 C-2.6015625 0.1953125 -2.6015625 0.1953125 0 0 Z " fill="#111111" transform="translate(140.6015625,355.8046875)"/>
<path d="M0 0 C2 2 2 2 2.1953125 5.2578125 C2.16050781 7.17207031 2.16050781 7.17207031 2.125 9.125 C2.10695313 10.40632813 2.08890625 11.68765625 2.0703125 13.0078125 C2.04710937 13.99523437 2.02390625 14.98265625 2 16 C-2.29 16 -6.58 16 -11 16 C-11 11.05 -11 6.1 -11 1 C-6.45122326 -1.27438837 -4.83802456 -1.07511657 0 0 Z " fill="#0D0D0D" transform="translate(335,336)"/>
<path d="M0 0 C0 0.99 0 1.98 0 3 C-1.79296875 4.75390625 -1.79296875 4.75390625 -4.1875 6.5625 C-4.96480469 7.16191406 -5.74210937 7.76132813 -6.54296875 8.37890625 C-10.36238997 10.89887415 -13.89468238 12.18772344 -18.4375 12.625 C-19.15808594 12.69976562 -19.87867188 12.77453125 -20.62109375 12.8515625 C-23.4090786 13.02552543 -26.20659301 13 -29 13 C-29 21.25 -29 29.5 -29 38 C-29.33 38 -29.66 38 -30 38 C-30 29.09 -30 20.18 -30 11 C-26.04 10.34 -22.08 9.68 -18 9 C-11.5055434 6.92007599 -5.46134709 4.09601032 0 0 Z " fill="#3E91CB" transform="translate(266,226)"/>
<path d="M0 0 C4.95779815 7.43669723 5.23184069 17.33830093 4 26 C1.97742262 34.34241548 -1.41690379 42.43165152 -7 49 C-7.495 47.515 -7.495 47.515 -8 46 C-7.07421875 44.23828125 -7.07421875 44.23828125 -5.6875 42.3125 C-2.96569837 38.21475998 -2.00667605 34.80107039 -1 30 C-0.443125 28.63875 -0.443125 28.63875 0.125 27.25 C2.46480608 18.55929171 0.87827435 8.84547742 0 0 Z " fill="#87C6F2" transform="translate(281,170)"/>
<path d="M0 0 C2.69284528 4.03926792 2.56086595 7.36948109 2.8125 12.125 C2.87630859 12.94226563 2.94011719 13.75953125 3.00585938 14.6015625 C3.34577899 20.65308925 2.28805162 25.4024903 0 31 C-0.99 31 -1.98 31 -3 31 C-2.7834375 30.43796875 -2.566875 29.8759375 -2.34375 29.296875 C0.84619772 19.66795874 0.26473607 10.01094535 0 0 Z " fill="#3E94CE" transform="translate(284,176)"/>
<path d="M0 0 C0.33 0.66 0.66 1.32 1 2 C2.01707031 1.91298828 2.01707031 1.91298828 3.0546875 1.82421875 C10.46312802 1.46508382 15.820642 2.80413963 22 7 C22.33 7.66 22.66 8.32 23 9 C21.37433394 8.52309796 19.74948689 8.04340334 18.125 7.5625 C17.22007812 7.29566406 16.31515625 7.02882812 15.3828125 6.75390625 C13 6 13 6 11 5 C8.9625237 4.77141886 6.91959697 4.58975722 4.875 4.4375 C3.23144531 4.31181641 3.23144531 4.31181641 1.5546875 4.18359375 C0.71164063 4.12300781 -0.13140625 4.06242188 -1 4 C-0.67 2.68 -0.34 1.36 0 0 Z " fill="#499BD3" transform="translate(237,136)"/>
<path d="M0 0 C0.99 0.66 1.98 1.32 3 2 C2.38188918 4.43943734 1.75584739 6.87635529 1.125 9.3125 C0.95097656 10.00279297 0.77695312 10.69308594 0.59765625 11.40429688 C-0.26698516 14.71875562 -1.08185702 17.12278553 -3 20 C-3.66 20 -4.32 20 -5 20 C-5 19.01 -5 18.02 -5 17 C-4.34 17 -3.68 17 -3 17 C-2.90912109 16.14728516 -2.90912109 16.14728516 -2.81640625 15.27734375 C-1.29962547 1.29962547 -1.29962547 1.29962547 0 0 Z " fill="#1F4159" transform="translate(349,216)"/>
<path d="M0 0 C-1.43561686 3.18706942 -3.20266329 5.62169105 -5.5 8.25 C-6.1084375 8.95640625 -6.716875 9.6628125 -7.34375 10.390625 C-9 12 -9 12 -11 12 C-11 12.66 -11 13.32 -11 14 C-12.65 14.66 -14.3 15.32 -16 16 C-16 15.34 -16 14.68 -16 14 C-14.35546875 12.66796875 -14.35546875 12.66796875 -12.1875 11.1875 C-8.83094344 8.76463347 -6.91202403 6.72341521 -5 3 C-2.4137931 0 -2.4137931 0 0 0 Z " fill="#2C83BC" transform="translate(299,232)"/>
<path d="M0 0 C1 4 1 4 0.375 5.875 C-1.52068516 8.80469525 -3.71885901 11.35867885 -6 14 C-6.66 13.67 -7.32 13.34 -8 13 C-5.36 8.71 -2.72 4.42 0 0 Z " fill="#19577F" transform="translate(319,234)"/>
<path d="M0 0 C0 3 0 3 -2.375 5.625 C-6.44447084 8.88253315 -10.95600776 8.89034799 -16 9 C-13.69908935 7.46605957 -11.59222835 6.25771373 -9.125 5.0625 C-5.98498371 3.51566541 -2.97092211 1.85682632 0 0 Z " fill="#489AD4" transform="translate(266,226)"/>
<path d="M0 0 C1.875 1.1875 1.875 1.1875 2.875 3.1875 C2.545 3.8475 2.215 4.5075 1.875 5.1875 C-1 5.3125 -1 5.3125 -4.125 5.1875 C-4.785 4.5275 -5.445 3.8675 -6.125 3.1875 C-5.795 2.1975 -5.465 1.2075 -5.125 0.1875 C-2.125 -0.8125 -2.125 -0.8125 0 0 Z " fill="#0F0F0F" transform="translate(250.125,368.8125)"/>
<path d="M0 0 C1.98 0.99 1.98 0.99 4 2 C4 2.66 4 3.32 4 4 C4.66 4 5.32 4 6 4 C6.99 6.31 7.98 8.62 9 11 C8.01 11.495 8.01 11.495 7 12 C6.67 11.34 6.34 10.68 6 10 C3.97536745 9.34786708 3.97536745 9.34786708 2 9 C2.226875 8.401875 2.45375 7.80375 2.6875 7.1875 C2.790625 6.465625 2.89375 5.74375 3 5 C1.60411246 3.35405861 1.60411246 3.35405861 0 2 C0 1.34 0 0.68 0 0 Z " fill="#8FC7F1" transform="translate(271,156)"/>
<path d="M0 0 C0 0.99 0 1.98 0 3 C-0.66 3 -1.32 3 -2 3 C-2 3.66 -2 4.32 -2 5 C-3.96875 6.5078125 -3.96875 6.5078125 -6.5 8.125 C-7.3353125 8.66382813 -8.170625 9.20265625 -9.03125 9.7578125 C-9.6809375 10.16773438 -10.330625 10.57765625 -11 11 C-10.42655063 8.13275314 -10.1385485 7.1385485 -8 5 C-7.01 5 -6.02 5 -5 5 C-4.67 4.01 -4.34 3.02 -4 2 C-1.9375 0.8125 -1.9375 0.8125 0 0 Z " fill="#2F74A3" transform="translate(303,254)"/>
<path d="M0 0 C-5.3986962 3.5991308 -10.6000073 4.26122419 -17 4 C-16.67 3.34 -16.34 2.68 -16 2 C-10.80567752 0.41529145 -5.42141225 -0.28533749 0 0 Z " fill="#81C5F3" transform="translate(253,233)"/>
<path d="M0 0 C2.18614424 2.18614424 2.68256535 3.53879949 3.625 6.4375 C3.88539063 7.21996094 4.14578125 8.00242188 4.4140625 8.80859375 C5 11 5 11 5 14 C4.01 13.67 3.02 13.34 2 13 C0.34950283 8.56971812 -0.22973141 4.70949382 0 0 Z " fill="#20435A" transform="translate(347,146)"/>
<path d="M0 0 C3.68802044 1.22934015 4.72356973 2.93859378 7 6 C6.67 6.66 6.34 7.32 6 8 C5.01 8 4.02 8 3 8 C0.19744677 5.0936485 0 4.21174952 0 0 Z " fill="#1C455D" transform="translate(329,115)"/>
<path d="M0 0 C0.86625 0.37125 0.86625 0.37125 1.75 0.75 C-0.47189824 2.97189824 -2.33482708 3.67598892 -5.25 4.75 C-5.25 7.39 -5.25 10.03 -5.25 12.75 C-5.58 12.75 -5.91 12.75 -6.25 12.75 C-6.87068966 4.68103448 -6.87068966 4.68103448 -4.5 1.125 C-2.25 -0.25 -2.25 -0.25 0 0 Z " fill="#BABABA" transform="translate(63.25,332.25)"/>
<path d="M0 0 C0.99 0.33 1.98 0.66 3 1 C2.67 3.31 2.34 5.62 2 8 C0.68 8.33 -0.64 8.66 -2 9 C-1.34 6.03 -0.68 3.06 0 0 Z " fill="#459AD4" transform="translate(283,198)"/>
<path d="M0 0 C5.31027254 1.46032495 9.46330032 3.98320986 14 7 C13.01 7.33 12.02 7.66 11 8 C8.6875 6.75 8.6875 6.75 6 5 C4.00757511 3.9849911 2.00925805 2.98126556 0 2 C0 1.34 0 0.68 0 0 Z " fill="#23455C" transform="translate(288,81)"/>
<path d="M0 0 C0.66 0.99 1.32 1.98 2 3 C1.23056641 6.15467773 0.67047831 7.58588104 -2.125 9.3125 C-3.053125 9.6528125 -3.053125 9.6528125 -4 10 C-2.8905928 6.51329166 -1.73662334 3.22515763 0 0 Z " fill="#18547B" transform="translate(324,224)"/>
<path d="M0 0 C1.48280196 0.78483659 2.9611498 1.57809334 4.4375 2.375 C5.67306641 3.03628906 5.67306641 3.03628906 6.93359375 3.7109375 C9 5 9 5 10 7 C6.33118845 6.29445932 3.29549466 4.72264494 0 3 C0 2.01 0 1.02 0 0 Z " fill="#8CC9F6" transform="translate(257,144)"/>
<path d="M0 0 C0.66 0.33 1.32 0.66 2 1 C-2.39453125 5.00390625 -2.39453125 5.00390625 -4 6 C-4.99 5.67 -5.98 5.34 -7 5 C-2.25 1.125 -2.25 1.125 0 0 Z " fill="#020F1B" transform="translate(302,287)"/>
<path d="M0 0 C2.97 0.33 5.94 0.66 9 1 C8.01 2.485 8.01 2.485 7 4 C2.25 3.125 2.25 3.125 0 2 C0 1.34 0 0.68 0 0 Z " fill="#38495D" transform="translate(226,236)"/>
<path d="M0 0 C0.33 1.32 0.66 2.64 1 4 C-1.375 5.5625 -1.375 5.5625 -4 7 C-4.66 6.67 -5.32 6.34 -6 6 C-4.02 4.02 -2.04 2.04 0 0 Z " fill="#4B9CD4" transform="translate(273,219)"/>
<path d="M0 0 C0.33 0.66 0.66 1.32 1 2 C-0.68474722 5.36949443 -1.8191658 6.87944386 -5 9 C-3.90931332 5.22454612 -3.0916909 2.52956528 0 0 Z " fill="#020E1B" transform="translate(340,247)"/>
<path d="M0 0 C1.0625 1.875 1.0625 1.875 2 4 C1.67 4.66 1.34 5.32 1 6 C-0.32 5.34 -1.64 4.68 -3 4 C-2.01 2.68 -1.02 1.36 0 0 Z " fill="#F9F9F9" transform="translate(135,354)"/>
<path d="M0 0 C0.99 0.33 1.98 0.66 3 1 C0.375 5.875 0.375 5.875 -3 7 C-1.125 2.25 -1.125 2.25 0 0 Z " fill="#4398D4" transform="translate(280,208)"/>
<path d="M0 0 C1.62580966 0.11398665 3.25067157 0.24155659 4.875 0.375 C5.77992188 0.44460937 6.68484375 0.51421875 7.6171875 0.5859375 C10 1 10 1 12 3 C10.56344146 3.08131463 9.1255517 3.13933559 7.6875 3.1875 C6.48673828 3.23970703 6.48673828 3.23970703 5.26171875 3.29296875 C2.52148416 2.93801608 1.70828921 2.10633718 0 0 Z " fill="#BDDEF7" transform="translate(236,164)"/>
<path d="M0 0 C2.88575819 0.39803561 3.82189513 0.79009069 5.75 3.0625 C6.1625 3.701875 6.575 4.34125 7 5 C5.35 4.67 3.7 4.34 2 4 C2 3.34 2 2.68 2 2 C1.34 2 0.68 2 0 2 C0 1.34 0 0.68 0 0 Z " fill="#224860" transform="translate(312,98)"/>
<path d="M0 0 C3.79303725 1.00193437 6.71536341 1.81024227 10 4 C7.03 3.67 4.06 3.34 1 3 C0.67 2.01 0.34 1.02 0 0 Z " fill="#20485C" transform="translate(278,77)"/>
<path d="M0 0 C0.33 0.66 0.66 1.32 1 2 C-0.32 3.65 -1.64 5.3 -3 7 C-3.99 6.67 -4.98 6.34 -6 6 C-4.02 4.02 -2.04 2.04 0 0 Z " fill="#04121F" transform="translate(323,269)"/>
<path d="M0 0 C0.99 0.33 1.98 0.66 3 1 C1.35 2.65 -0.3 4.3 -2 6 C-2.66 5.01 -3.32 4.02 -4 3 C-2.1875 1.4375 -2.1875 1.4375 0 0 Z " fill="#3A4B5E" transform="translate(207,145)"/>
<path d="M0 0 C0.66 0 1.32 0 2 0 C0.60667426 3.36720387 -0.9789286 4.9859524 -4 7 C-4.66 6.67 -5.32 6.34 -6 6 C-4.71034824 4.62437146 -3.37310707 3.29233607 -2 2 C-1.34 2 -0.68 2 0 2 C0 1.34 0 0.68 0 0 Z " fill="#12171E" transform="translate(160,94)"/>
</svg>
